<?xml version="1.0" encoding="iso-8859-1"?>
<!-- Generator: Adobe Illustrator 18.0.0, SVG Export Plug-In . SVG Version: 6.00 Build 0)  -->
<!DOCTYPE svg PUBLIC "-//W3C//DTD SVG 1.1//EN" "http://www.w3.org/Graphics/SVG/1.1/DTD/svg11.dtd">
<svg version="1.1" id="Capa_1" xmlns="http://www.w3.org/2000/svg" xmlns:xlink="http://www.w3.org/1999/xlink" x="0px" y="0px"
	 viewBox="0 0 358.609 358.609" style="enable-background:new 0 0 358.609 358.609;" xml:space="preserve">
<g>
	<g>
		<path d="M204.847,267.932H73.383V45.511h181.613v118.091h34.193V9.008c0-4.978-4.037-9.008-9.008-9.008H48.197
			c-4.979,0-9.008,4.03-9.008,9.008v308.938c0,4.976,4.029,9.006,9.008,9.006h156.649V267.932z M164.188,310.288
			c-5.47,0-9.907-4.435-9.907-9.908c0-5.471,4.438-9.904,9.907-9.904c5.475,0,9.911,4.434,9.911,9.904
			C174.099,305.853,169.662,310.288,164.188,310.288z"/>
	</g>
	<path d="M314.423,177.255h-90.926c-2.761,0-4.997,2.235-4.997,4.996v171.362c0,2.76,2.236,4.996,4.997,4.996h90.926
		c2.761,0,4.997-2.236,4.997-4.996V182.251C319.42,179.49,317.184,177.255,314.423,177.255z M268.961,349.366
		c-3.037,0-5.496-2.46-5.496-5.494c0-3.036,2.459-5.496,5.496-5.496c3.033,0,5.494,2.46,5.494,5.496
		C274.455,346.906,271.994,349.366,268.961,349.366z M301.459,325.472h-65V202.898h65V325.472z"/>
</g>
<g>
</g>
<g>
</g>
<g>
</g>
<g>
</g>
<g>
</g>
<g>
</g>
<g>
</g>
<g>
</g>
<g>
</g>
<g>
</g>
<g>
</g>
<g>
</g>
<g>
</g>
<g>
</g>
<g>
</g>
</svg>
